<svg xmlns="http://www.w3.org/2000/svg" xmlns:xlink="http://www.w3.org/1999/xlink" width="410" height="162" viewBox="0 0 410 162" role="img" aria-label="~/esp32_corne_ble_keyboard">
<title>~/esp32_corne_ble_keyboard</title>
<style>
text { font-family: 'JetBrains Mono','Fira Code','SFMono-Regular',Consolas,'Liberation Mono',Menlo,monospace; }
.bar { fill: #8b949e; font-size: 12px; }
.in { opacity: 0; animation: fade .6s ease-out forwards; }
@keyframes fade { from { opacity: 0; transform: translateY(6px); } to { opacity: 1; transform: none; } }
@keyframes blink { 50% { opacity: 0; } }
@media (prefers-reduced-motion: reduce) { * { animation: none !important; } .in { opacity: 1; } }
</style>
<defs>
  <clipPath id="win"><rect width="410" height="162" rx="10"/></clipPath>
  <pattern id="scan" width="4" height="3" patternUnits="userSpaceOnUse"><rect width="4" height="1" fill="#fff" opacity=".022"/></pattern>
  <linearGradient id="edge" x1="0" y1="0" x2="1" y2="1">
    <stop offset="0" stop-color="#00ff66" stop-opacity=".6"/>
    <stop offset=".45" stop-color="#00ff66" stop-opacity=".07"/>
    <stop offset="1" stop-color="#00ff66" stop-opacity=".4"/>
  </linearGradient>
  <filter id="glow" x="-20%" y="-20%" width="140%" height="140%">
    <feGaussianBlur stdDeviation="2.4" result="b"/>
    <feMerge><feMergeNode in="b"/><feMergeNode in="SourceGraphic"/></feMerge>
  </filter>
</defs>
<g clip-path="url(#win)">
  <rect width="410" height="162" fill="#0d1117"/>
  <rect width="410" height="30" fill="#161b22"/>
  <line x1="0" y1="30.5" x2="410" y2="30.5" stroke="#30363d"/>
  <circle cx="18" cy="15" r="5.5" fill="#ff5f57"/>
  <circle cx="36" cy="15" r="5.5" fill="#febc2e"/>
  <circle cx="54" cy="15" r="5.5" fill="#28c840"/>
  <text x="205.0" y="19.5" text-anchor="middle" class="bar">~/esp32_corne_ble_keyboard</text>

  <g class="in">
  <text x="22" y="60" font-size="15" font-weight="700" fill="#00ff66">esp32_corne_ble_keyboard<tspan fill="#484f58" font-weight="400"> /</tspan></text>
  <text x="22" y="82" font-size="12.5" fill="#8b949e">Wireless Corne split keyboard firmware running</text><text x="22" y="100" font-size="12.5" fill="#8b949e">on the ESP32 over BLE.</text>
  <circle cx="28" cy="140" r="5.5" fill="#f34b7d"/>
  <text x="40" y="144" font-size="12.5" fill="#c9d1d9">C++</text>
  <polygon points="92.50,133.00 94.09,136.82 98.21,137.15 95.07,139.83 96.03,143.85 92.50,141.70 88.97,143.85 89.93,139.83 86.79,137.15 90.91,136.82" fill="none" stroke="#8b949e" stroke-width="1.3" stroke-linejoin="round"/>
  <text x="103.5" y="144" font-size="12.5" fill="#c9d1d9">3</text>
  <g fill="none" stroke="#8b949e" stroke-width="1.3" transform="translate(138.5 140)"><circle cx="-4" cy="-5" r="1.8"/><circle cx="4" cy="-5" r="1.8"/><circle cx="0" cy="6" r="1.8"/><path d="M-4 -3 V-1 Q-4 1 -2 1 H2 Q4 1 4 -1 V-3 M0 1 V4"/></g>
  <text x="148.5" y="144" font-size="12.5" fill="#c9d1d9">0</text>
  </g>
  <rect y="31" width="410" height="131" fill="url(#scan)"/>
</g>
<rect x=".5" y=".5" width="409" height="161" rx="9.5" fill="none" stroke="url(#edge)"/>
</svg>
